<?xml version="1.0" encoding="utf-8"?>
<!-- Generator: Adobe Illustrator 16.0.0, SVG Export Plug-In . SVG Version: 6.00 Build 0)  -->
<!DOCTYPE svg PUBLIC "-//W3C//DTD SVG 1.1//EN" "http://www.w3.org/Graphics/SVG/1.1/DTD/svg11.dtd">
<svg version="1.1" id="图层_1" xmlns="http://www.w3.org/2000/svg" xmlns:xlink="http://www.w3.org/1999/xlink" x="0px" y="0px"
	 width="302px" height="60px" viewBox="0 0 302 60" enable-background="new 0 0 302 60" xml:space="preserve">
<g>
	<g>
		<path fill="#FFFFFF" d="M61.087,35.73L41.94,12.824h2.991l15.505,18.521l3.359-10.736c0.562-1.792,0.872-3.17,0.942-4.141
			c0.051-0.908-0.193-1.677-0.725-2.295c-0.536-0.609-1.336-1.006-2.411-1.192l0.146-0.468c0.017,0,0.303,0.027,0.857,0.08
			c2.166,0.15,3.646,0.229,4.441,0.229c0.727,0,2.489-0.105,5.284-0.309l-0.146,0.468c-0.921,0.124-1.797,0.495-2.657,1.112
			c-0.822,0.583-1.49,1.307-1.994,2.171c-0.51,0.883-1.014,2.11-1.512,3.699L61.087,35.73L61.087,35.73z M39.078,12.824
			l-4.433-0.309l-0.147,0.468c1.556,0.583,3.252,1.986,5.097,4.184l1.33,1.58l-4.2,13.497c-0.836,2.677-1.679,4.537-2.535,5.589
			c-0.848,1.05-2.06,1.748-3.62,2.092l-0.146,0.468c2.147-0.203,3.728-0.311,4.757-0.311c0.916,0,2.613,0.107,5.099,0.311
			l0.147-0.468c-1.321-0.309-2.16-0.973-2.497-1.995c-0.339-1.014-0.099-2.832,0.722-5.453l3.764-12.024l16.711,19.94h0.501
			l0.663-2.117L39.078,12.824z"/>
		<path fill="#FFFFFF" d="M83.083,40.082H71.359l8.533-27.258c1.16-0.035,2.462-0.105,3.911-0.203
			c1.345-0.07,1.961-0.105,1.857-0.105l-0.146,0.468c-1.405,0.345-2.543,1.024-3.396,2.04c-0.876,1.058-1.63,2.613-2.28,4.688
			l-3.52,11.244c-0.529,1.687-0.915,3.196-1.165,4.521c-0.283,1.402-0.36,2.198-0.218,2.41c0.118,0.201,0.577,0.309,1.373,0.309
			h5.318c1.875,0,3.517-0.299,4.944-0.907c1.424-0.601,2.877-1.792,4.358-3.567h0.51c-0.381,0.829-1.17,2.135-2.371,3.928
			c-0.78,1.141-1.335,2.06-1.672,2.746C86.092,40.189,84.656,40.082,83.083,40.082L83.083,40.082z M72.82,12.516l-0.146,0.468
			c0.738,0.186,1.315,0.715,1.736,1.58c0.412,0.839,0.202,2.586-0.622,5.217l-3.871,12.367c-0.771,2.463-1.558,4.256-2.366,5.375
			c-0.804,1.104-1.903,1.906-3.312,2.401l-0.146,0.468c1.619-0.203,2.906-0.311,3.866-0.311h1.573l8.533-27.258L72.82,12.516z"/>
		<path fill="#FFFFFF" d="M92.037,12.824l8.689,14.222l-4.081,13.036H96.04c-1.471,0-3.197,0.107-5.188,0.311l0.146-0.468
			c1.196-0.257,2.249-0.829,3.171-1.702c0.887-0.849,1.71-2.48,2.473-4.918l1.771-5.659l-5.338-8.686
			c-2.038-3.293-4.189-5.288-6.454-5.977l0.146-0.468c1.337,0.203,2.817,0.309,4.459,0.309H92.037L92.037,12.824z M98.6,40.082
			h0.907c0.104,0,1.671,0.107,4.694,0.311l0.146-0.468c-2.271-0.504-2.792-2.737-1.542-6.728l2.056-6.567l10.123-8.783
			c0.248-0.211,0.416-0.363,0.5-0.468c1.356-1.209,2.522-2.145,3.493-2.816c0.996-0.671,2.199-1.2,3.58-1.58l0.146-0.468
			c-2.752,0.203-4.264,0.309-4.558,0.309c-0.518,0-1.112-0.035-1.79-0.105c-1.61-0.133-2.617-0.203-3.023-0.203l-0.146,0.468
			c1.082,0.273,1.431,1.006,1.058,2.199c-0.329,1.05-1.254,2.241-2.785,3.565l-6.893,5.977l-3.552-5.721
			c-1.349-2.154-1.885-3.672-1.604-4.572c0.21-0.671,0.855-1.157,1.95-1.448l0.146-0.468c-2.208,0.203-4.325,0.309-6.331,0.309
			h-0.709l8.449,13.471L98.6,40.082z"/>
		<path fill="#FFFFFF" d="M25.953,37.229c2.243-2.604,3.711-6.522,4.421-11.766c0.625-4.631,0.181-8.235-1.341-10.831
			c3.27,2.172,4.551,5.874,3.844,11.117C32.179,30.921,29.87,34.75,25.953,37.229L25.953,37.229z M22.492,35.289
			c-0.228,0.271-0.465,0.523-0.713,0.76l-0.809,2.485H8.937l7.405-21.655l-6.89,0.579l1.013-2.344l9.495-3.492l0.829-0.365
			c-0.586-0.084-1.204-0.126-1.85-0.126c-3.503,0-6.422,1.261-8.775,3.773c-2.348,2.55-3.845,6.208-4.489,10.974
			c-0.621,4.594-0.124,8.197,1.5,10.819c1.614,2.623,4.219,3.938,7.829,3.938c2.263,0,4.32-0.542,6.16-1.613
			c1.876-1.055,3.439-2.684,4.688-4.899c1.278-2.243,2.127-4.973,2.564-8.217c0.481-3.568,0.322-6.498-0.477-8.791L21.812,35.95
			C22.042,35.739,22.269,35.518,22.492,35.289L22.492,35.289z M8.075,14.607C5.766,17.604,4.3,21.426,3.668,26.093
			c-0.571,4.225-0.15,7.884,1.249,10.984c-3.186-2.347-4.426-6.091-3.729-11.243C1.902,20.536,4.197,16.796,8.075,14.607z"/>
		<path fill="#FFFFFF" d="M27.825,8.255c-0.144,0.377-0.215,0.75-0.215,1.118c0,0.51,0.137,0.972,0.408,1.388
			c0.273,0.418,0.606,0.721,1.008,0.907c-0.609-0.039-1.105-0.232-1.489-0.581c-0.392-0.355-0.587-0.781-0.587-1.279
			C26.95,9.225,27.241,8.707,27.825,8.255L27.825,8.255z M29.618,7.828c-0.548,0.411-0.821,0.888-0.821,1.435
			c0,0.442,0.182,0.862,0.548,1.259c0.359,0.396,0.836,0.595,1.428,0.595c0.46,0,0.93-0.208,1.416-0.624
			c-0.19-0.177-0.419-0.403-0.698-0.678c-0.276-0.275-0.546-0.55-0.809-0.827c-0.266-0.275-0.488-0.518-0.669-0.726
			C29.774,8,29.643,7.856,29.618,7.828L29.618,7.828z M32.624,10.865c0.305,0.256,0.609,0.459,0.905,0.607
			c0.285,0.146,0.652,0.217,1.096,0.217c0.138,0,0.294-0.017,0.467-0.051c-0.38-0.074-0.788-0.243-1.222-0.511
			c-0.41-0.25-0.905-0.664-1.482-1.237c-0.109-0.107-0.291-0.289-0.546-0.549c-0.252-0.258-0.516-0.53-0.783-0.819
			c-0.269-0.287-0.467-0.5-0.597-0.64c-0.39-0.433-0.688-0.781-0.895-1.042c-0.208-0.262-0.367-0.487-0.476-0.678
			c-0.197-0.36-0.302-0.702-0.318-1.03c-0.14,0.266-0.207,0.533-0.207,0.805c0,0.358,0.235,0.85,0.703,1.476
			c-0.759,0.495-1.141,1.13-1.141,1.904c0,0.555,0.235,1.089,0.704,1.602c0.464,0.509,1.058,0.762,1.785,0.762
			C31.33,11.682,31.997,11.41,32.624,10.865L32.624,10.865z M30.649,6.462c-0.508-0.564-0.764-0.992-0.764-1.28
			c0-0.153,0.076-0.304,0.229-0.447c0.152-0.146,0.382-0.218,0.688-0.218c0.276,0,0.499,0.079,0.669,0.239
			c0.171,0.162,0.257,0.385,0.257,0.664c0,0.504-0.311,0.908-0.933,1.211L30.649,6.462L30.649,6.462z M36.32,10.808l0.075,0.098
			c-0.331,0.2-0.632,0.3-0.904,0.3c-0.359,0-0.79-0.16-1.287-0.482c-0.263-0.172-0.574-0.423-0.938-0.752
			c-0.363-0.329-0.815-0.769-1.36-1.318c-1.011-1.032-1.704-1.795-2.073-2.297c-0.352-0.471-0.526-0.865-0.526-1.183
			c0-0.324,0.145-0.604,0.43-0.831C30.022,4.114,30.416,4,30.923,4c0.493,0,0.905,0.122,1.236,0.363
			c0.336,0.248,0.502,0.563,0.502,0.946c0,0.64-0.492,1.223-1.481,1.75c0.451,0.504,1.181,1.251,2.195,2.245
			c0.487-0.544,0.733-0.96,0.733-1.244c0-0.341-0.292-0.546-0.868-0.616V7.317c0.789,0.065,1.355,0.098,1.697,0.098
			c0.073,0,0.237-0.005,0.496-0.014c0.291-0.015,0.534-0.021,0.726-0.021v0.118c-0.44,0.01-0.928,0.359-1.467,1.044L34.22,9.137
			c-0.015,0.015-0.043,0.043-0.083,0.091l-0.361,0.439c0.881,0.821,1.574,1.232,2.072,1.232
			C36.004,10.899,36.163,10.867,36.32,10.808z"/>
	</g>
	<g>
		<polygon fill="#FFFFFF" points="149.827,12.422 139.723,12.422 139.723,11.164 136.254,11.164 136.254,12.422 126.335,12.422 
			126.335,14.549 136.304,14.549 136.304,15.651 128.262,15.651 128.262,17.198 147.837,17.198 147.837,15.655 139.76,15.655 
			139.76,14.604 149.858,14.604 149.858,12.422 		"/>
		<polygon fill="#FFFFFF" points="149.629,21.527 149.629,18.018 126.52,18.018 126.52,21.532 129.781,21.532 129.781,19.579 
			146.379,19.579 146.379,21.543 149.629,21.543 		"/>
		<rect x="130.564" y="20.413" fill="#FFFFFF" width="15.022" height="1.561"/>
		<path fill="#FFFFFF" d="M147.047,22.682H129.11v4.762h2.571l0.446,1.488h-6.047v2.048h23.886v-2.048h-6.042l0.438-1.49h2.675
			l0.011-4.883L147.047,22.682L147.047,22.682z M141.106,27.45l-0.459,1.487h-5.146l-0.433-1.487H141.106L141.106,27.45z
			 M132.131,25.761V24.37h11.886v1.391H132.131z"/>
	</g>
	<g>
		<polygon fill="#FFFFFF" points="201.355,12.422 191.254,12.422 191.254,11.164 187.783,11.164 187.783,12.422 177.863,12.422 
			177.863,14.549 187.832,14.549 187.832,15.651 179.791,15.651 179.791,17.198 199.367,17.198 199.367,15.655 191.288,15.655 
			191.288,14.604 201.387,14.604 201.387,12.422 		"/>
		<polygon fill="#FFFFFF" points="201.159,21.527 201.159,18.018 178.049,18.018 178.049,21.532 181.313,21.532 181.313,19.579 
			197.908,19.579 197.908,21.543 201.159,21.543 		"/>
		<rect x="182.093" y="20.413" fill="#FFFFFF" width="15.021" height="1.561"/>
		<path fill="#FFFFFF" d="M198.577,22.682h-17.937v4.762h2.57l0.443,1.488h-6.045v2.048h23.885v-2.048h-6.042l0.437-1.49h2.678
			l0.011-4.883V22.682L198.577,22.682z M192.637,27.45l-0.459,1.487h-5.146l-0.435-1.487H192.637L192.637,27.45z M183.66,25.761
			V24.37h11.886v1.391H183.66z"/>
	</g>
	<g>
		<path fill="#FFFFFF" d="M158.264,11.285h-3.037v2.736h-2.793v2.39h2.805l0.006,1.831c0.018,4.349-1.797,9.459-3.482,11.881
			c0.004,0.185-0.021,0.863-0.003,0.863l1.798-0.006c4.285-5.688,4.709-10.245,4.713-12.185c0.002-1.941-0.019-2.38,0-2.38h2.349
			v11.708c0,0-0.205,0.815-1.003,0.815c-0.797,0-1.909,0-1.909,0v2.042h3.246c0,0,2.807-0.301,2.807-2.532
			c0-2.841,0-14.433,0-14.433h-5.497L158.264,11.285z"/>
		<path fill="#FFFFFF" d="M175.079,13.225h-9.538v17.072h9.544L175.079,13.225L175.079,13.225z M172.05,15.737
			c0,0,0.015,11.165,0.015,11.494s-0.451,0.784-0.955,0.784s-1.75-0.009-2.646-0.009V15.737H172.05z"/>
	</g>
	<g>
		<path fill="#FFFFFF" d="M256.239,11.297h8.188v19.678h-4.711v-2.376c0,0,0.739,0,1.229,0c0.492,0,0.677-0.463,0.677-0.582
			c0-0.119,0-3.747,0-3.747s-2.218,0-2.577,0c-1.043,3.683-2.42,6.036-3.813,6.713c-0.572,0-1.008,0-1.008,0s0-0.67,0-0.796
			c0.807-0.897,1.93-4.579,2.016-5.923C256.241,23.921,256.239,11.297,256.239,11.297L256.239,11.297z M261.624,18.924h-2.563v3.18
			h2.555L261.624,18.924L261.624,18.924z M259.036,13.685l0.016,2.95h2.572v-2.95H259.036z"/>
		<path fill="#FFFFFF" d="M267.123,11.291c0,0,0,3.482,0,4.1c0,0.618-0.837,1.796-1.545,2.159c0,0.305-0.002,1.436-0.002,1.819
			c1.293,0,3.688-1.625,3.688-2.846c0-0.749,0-3.413,0-3.413h3.906c0,0,0,2.568,0,3.468c0,1.073,2.068,2.795,3.587,2.795
			c0-0.374,0-1.986,0-2.172c-0.116-0.124-1.182-0.507-1.562-1.475c0-0.631,0-4.444,0-4.444L267.123,11.291z"/>
		<path fill="#FFFFFF" d="M276.76,20.084h-11.203v2.276c0,0,0.881,2.76,3.248,4.784c-1.029,0.669-3.839,1.684-4.043,1.684
			c0,0.46,0.002,1.902,0.002,2.152c1.479,0,5.24-1.713,6.412-2.382c1.281,0.866,5.196,2.376,6.374,2.376c0-0.817,0-1.242,0-2.245
			c-0.935-0.222-4.149-1.383-4.149-1.586c1.295-0.971,2.793-3.325,3.371-4.781C276.771,22.053,276.76,20.084,276.76,20.084
			L276.76,20.084z M274.088,22.382c0,0-1.038,2.227-3.059,3.538c-1.619-1.034-2.695-3.538-2.695-3.538H274.088z"/>
	</g>
	<g>
		<polygon fill="#FFFFFF" points="229.573,14.985 229.573,12.888 234.521,12.888 233.889,11.138 236.788,11.138 237.289,12.888 
			243.784,12.888 244.395,11.138 247.184,11.138 246.659,12.888 251.521,12.888 251.521,14.985 241.932,14.985 241.932,16.32 
			250.363,16.32 250.363,18.396 241.932,18.396 241.932,19.821 252.238,19.821 252.238,21.774 228.941,21.774 228.941,19.821 
			239.055,19.821 239.055,18.396 230.902,18.396 230.902,16.32 239.055,16.32 239.055,14.985 		"/>
		<path fill="#FFFFFF" d="M229.248,25.718v-1.942h9.543c0-0.111,0-0.267,0-0.443v-0.939h3.491c0,0,0.01,1.137,0.01,1.382h9.51v1.942
			h-9.044c1.439,1.794,4.664,3.102,9.68,3.921v1.395c-5.035-0.214-9.592-1.792-11.857-3.942c-2.266,2.149-6.564,3.608-11.833,3.942
			v-1.395c5.077-0.886,8.26-2.194,9.567-3.921H229.248z"/>
	</g>
	<g>
		<path fill="#FFFFFF" d="M204.124,30.939l0.021-19.213h21.84v2.065h-19.131v13.322c0,1.064,0.549,1.84,1.855,1.84h17.579v2.01
			L204.124,30.939z"/>
		<path fill="#FFFFFF" d="M225.68,28.169c-3.4-0.373-6.889-1.506-8.326-3.368c-1.244,1.752-5.847,3.016-8.783,3.368v-1.307
			c3.99-1.042,6.037-2.259,6.647-4.119h-7.062v-2.098h7.466c0-0.163,0.01-2.389,0.01-2.389h-3.466
			c-0.807,0.799-2.631,1.361-3.813,1.361v-1.13c1.723-0.752,2.789-2.039,3.205-3.833h2.461c-0.195,0.643-0.193,0.974-0.479,1.504
			h10.896v2.098h-5.732v1.715c0,0.355,0,0.377,0,0.674h6.755v2.098h-6.429c1.221,2.039,3.269,3.256,6.646,4.119v1.307H225.68z"/>
	</g>
	<g>
		<path fill="#FFFFFF" d="M281.293,30.955V18.741c-0.697,0.412-1.482,0.734-2.366,0.968v-1.952c2.271-1.349,3.72-3.334,4.353-6.62
			h2.93c-0.506,2.054-1.165,3.763-1.986,5.052v14.765L281.293,30.955L281.293,30.955z M292.904,30.848v-2.005h1.15
			c1.073,0,1.576-0.439,1.516-1.32v-6.055h-3.594c0,4.643-1.985,7.727-6.523,9.486v-1.759c2.52-1.642,3.688-3.728,3.688-7.727
			h-1.986v-2.215c-0.631,0.351-1.291,0.704-1.983,1.056v-1.847c2.394-1.761,3.813-4.193,4.254-7.303h2.765
			c-0.506,3.754-2.041,6.453-4.938,8.094h11.252v8.182c0.063,2.169-1.071,3.469-3.403,3.413H292.904z M300.961,20.309
			c-4.289-1.701-6.548-4.751-7.053-9.15h2.797c0.566,3.167,1.984,5.602,4.256,7.303V20.309z"/>
	</g>
	<g>
		<path fill="#FFFFFF" d="M126.25,38.277c0-0.924,0.232-1.649,0.696-2.17c0.464-0.523,1.063-0.785,1.797-0.785
			c0.48,0,0.914,0.121,1.3,0.369c0.386,0.244,0.68,0.588,0.883,1.026c0.202,0.44,0.303,0.938,0.303,1.494
			c0,0.565-0.106,1.07-0.319,1.517c-0.214,0.445-0.516,0.783-0.907,1.014c-0.391,0.229-0.812,0.344-1.264,0.344
			c-0.49,0-0.928-0.128-1.314-0.38c-0.386-0.252-0.679-0.601-0.877-1.038C126.349,39.232,126.25,38.766,126.25,38.277z
			 M126.959,38.289c0,0.672,0.169,1.199,0.506,1.587c0.337,0.385,0.761,0.58,1.271,0.58c0.519,0,0.945-0.194,1.28-0.587
			c0.335-0.391,0.503-0.943,0.503-1.66c0-0.452-0.072-0.848-0.215-1.186c-0.143-0.34-0.354-0.603-0.628-0.789
			c-0.276-0.187-0.585-0.277-0.929-0.277c-0.488,0-0.908,0.178-1.259,0.538C127.135,36.854,126.959,37.451,126.959,38.289z"/>
		<path fill="#FFFFFF" d="M132.209,40.991v-5.57h0.707l2.735,4.374v-4.374h0.661v5.57h-0.707l-2.734-4.377v4.377H132.209z"/>
		<path fill="#FFFFFF" d="M137.583,40.991v-5.57h3.766v0.657h-3.076v1.708h2.879v0.651h-2.879v1.896h3.196v0.657L137.583,40.991
			L137.583,40.991z"/>
		<path fill="#FFFFFF" d="M143.1,40.991l2-5.57h0.743l2.131,5.57h-0.786l-0.607-1.687h-2.177l-0.572,1.687H143.1z M144.602,38.703
			h1.766l-0.544-1.542c-0.166-0.47-0.289-0.854-0.369-1.153c-0.067,0.355-0.159,0.711-0.281,1.063L144.602,38.703z"/>
		<path fill="#FFFFFF" d="M148.616,40.991v-5.57h0.707l2.735,4.374v-4.374h0.658v5.57h-0.705l-2.736-4.377v4.377H148.616z"/>
		<path fill="#FFFFFF" d="M153.854,40.991v-5.57h1.795c0.406,0,0.713,0.027,0.929,0.08c0.296,0.073,0.552,0.207,0.761,0.399
			c0.276,0.246,0.48,0.564,0.616,0.949c0.137,0.387,0.205,0.83,0.205,1.325c0,0.425-0.045,0.798-0.138,1.125
			c-0.094,0.326-0.211,0.599-0.356,0.81c-0.146,0.216-0.302,0.385-0.474,0.509c-0.172,0.12-0.379,0.215-0.623,0.278
			c-0.241,0.062-0.521,0.095-0.834,0.095H153.854z M154.543,40.334h1.111c0.344,0,0.613-0.035,0.808-0.102
			c0.197-0.069,0.353-0.166,0.468-0.289c0.164-0.176,0.291-0.411,0.383-0.705c0.092-0.297,0.138-0.653,0.138-1.075
			c0-0.582-0.089-1.028-0.269-1.343c-0.18-0.313-0.396-0.522-0.652-0.631c-0.185-0.073-0.481-0.111-0.893-0.111h-1.094V40.334
			L154.543,40.334z"/>
		<path fill="#FFFFFF" d="M159.787,38.277c0-0.924,0.232-1.649,0.693-2.17c0.465-0.523,1.065-0.785,1.799-0.785
			c0.482,0,0.914,0.121,1.3,0.369c0.388,0.244,0.681,0.588,0.884,1.026c0.202,0.44,0.305,0.938,0.305,1.494
			c0,0.565-0.107,1.07-0.319,1.517c-0.216,0.445-0.517,0.783-0.907,1.014c-0.391,0.229-0.813,0.344-1.264,0.344
			c-0.49,0-0.93-0.128-1.314-0.38s-0.679-0.601-0.876-1.038C159.885,39.232,159.787,38.766,159.787,38.277z M160.497,38.289
			c0,0.672,0.168,1.199,0.508,1.587c0.335,0.385,0.761,0.58,1.269,0.58c0.519,0,0.944-0.194,1.281-0.587
			c0.334-0.391,0.502-0.943,0.502-1.66c0-0.452-0.072-0.848-0.215-1.186c-0.146-0.34-0.353-0.603-0.63-0.789
			c-0.276-0.187-0.585-0.277-0.928-0.277c-0.488,0-0.907,0.178-1.261,0.538C160.673,36.854,160.497,37.451,160.497,38.289z"/>
		<path fill="#FFFFFF" d="M165.625,40.991v-5.57h0.708l2.733,4.374v-4.374h0.662v5.57h-0.707l-2.735-4.377v4.377H165.625z"/>
		<path fill="#FFFFFF" d="M170.835,40.991v-5.57h0.69v4.913h2.563v0.657H170.835z"/>
		<path fill="#FFFFFF" d="M176.355,40.991v-2.358l-2.008-3.212h0.84l1.025,1.679c0.189,0.314,0.366,0.629,0.528,0.941
			c0.157-0.29,0.348-0.619,0.567-0.982l1.01-1.638h0.805l-2.079,3.212v2.358H176.355z"/>
		<g>
			<path fill="#FFFFFF" d="M186.081,40.98h-0.655v-4.66h-0.014l-1.508,4.66h-0.62l-1.498-4.736h-0.021v4.736h-0.658v-5.568h1.035
				l1.237,3.943c0.14,0.438,0.218,0.713,0.239,0.824h0.014c0.064-0.216,0.158-0.515,0.279-0.895l1.25-3.874h0.919V40.98
				L186.081,40.98z"/>
			<path fill="#FFFFFF" d="M191.123,40.98h-3.907v-5.568h3.786v0.662h-3.094v1.699h2.895v0.66h-2.895v1.885h3.215V40.98z"/>
			<path fill="#FFFFFF" d="M192.096,35.412h1.807c0.315,0,0.59,0.018,0.818,0.053c0.228,0.033,0.445,0.117,0.654,0.249
				c0.208,0.134,0.389,0.315,0.546,0.55c0.154,0.233,0.276,0.502,0.366,0.805c0.09,0.302,0.135,0.668,0.135,1.098
				c0,0.82-0.184,1.495-0.55,2.021c-0.367,0.53-0.997,0.793-1.89,0.793h-1.887V35.412L192.096,35.412z M192.788,40.318h1.122
				c0.229,0,0.433-0.014,0.611-0.045c0.181-0.028,0.36-0.112,0.547-0.246c0.184-0.135,0.336-0.354,0.457-0.66
				c0.121-0.309,0.183-0.713,0.183-1.217c0-0.277-0.024-0.537-0.069-0.781c-0.046-0.239-0.134-0.46-0.256-0.659
				c-0.127-0.199-0.27-0.345-0.432-0.437c-0.162-0.094-0.319-0.149-0.473-0.17s-0.352-0.029-0.59-0.029h-1.102L192.788,40.318
				L192.788,40.318z"/>
			<path fill="#FFFFFF" d="M198.156,40.98h-0.696v-5.568h0.696V40.98z"/>
			<path fill="#FFFFFF" d="M203.809,39.214c-0.149,0.627-0.416,1.093-0.795,1.4c-0.38,0.307-0.836,0.462-1.363,0.462
				c-0.856,0-1.48-0.284-1.873-0.857c-0.393-0.57-0.588-1.258-0.588-2.06c0-0.89,0.23-1.585,0.69-2.089
				c0.461-0.5,1.052-0.754,1.774-0.754c0.51,0,0.943,0.141,1.308,0.416c0.36,0.274,0.614,0.679,0.759,1.211l-0.677,0.172
				c-0.114-0.389-0.289-0.678-0.521-0.873c-0.234-0.197-0.525-0.294-0.875-0.294c-0.57,0-1.004,0.198-1.299,0.6
				c-0.297,0.397-0.442,0.935-0.442,1.603c0,0.775,0.153,1.352,0.467,1.729c0.31,0.377,0.714,0.565,1.215,0.565
				c0.407,0,0.739-0.118,0.994-0.354c0.258-0.233,0.438-0.591,0.539-1.063L203.809,39.214z"/>
			<path fill="#FFFFFF" d="M208.975,40.98h-0.779l-0.612-1.694h-2.185l-0.578,1.694h-0.73l2.008-5.568h0.746L208.975,40.98z
				 M207.372,38.701c-0.431-1.206-0.671-1.889-0.726-2.053c-0.056-0.162-0.115-0.383-0.183-0.654h-0.019
				c-0.065,0.375-0.155,0.72-0.268,1.041l-0.585,1.666H207.372z"/>
			<path fill="#FFFFFF" d="M212.79,40.98h-3.271v-5.568h0.691v4.906h2.578L212.79,40.98L212.79,40.98z"/>
			<path fill="#FFFFFF" d="M218.992,39.214c-0.154,0.627-0.419,1.093-0.801,1.4c-0.377,0.307-0.832,0.462-1.362,0.462
				c-0.856,0-1.479-0.284-1.872-0.857c-0.393-0.57-0.585-1.258-0.585-2.06c0-0.89,0.229-1.585,0.688-2.089
				c0.459-0.5,1.051-0.754,1.775-0.754c0.51,0,0.943,0.141,1.305,0.416c0.361,0.274,0.614,0.679,0.762,1.211l-0.678,0.172
				c-0.115-0.389-0.289-0.678-0.521-0.873c-0.232-0.197-0.523-0.294-0.874-0.294c-0.569,0-1.002,0.198-1.3,0.6
				c-0.295,0.397-0.441,0.935-0.441,1.603c0,0.775,0.155,1.352,0.467,1.729c0.311,0.377,0.715,0.565,1.215,0.565
				c0.41,0,0.74-0.118,0.996-0.354c0.256-0.233,0.436-0.591,0.536-1.063L218.992,39.214z"/>
			<path fill="#FFFFFF" d="M222.127,35.316c0.732,0,1.332,0.266,1.8,0.795c0.464,0.529,0.698,1.228,0.698,2.092
				c0,0.865-0.234,1.561-0.704,2.086c-0.468,0.525-1.063,0.787-1.794,0.787c-0.753,0-1.359-0.273-1.818-0.817
				s-0.689-1.209-0.689-1.991c0-0.916,0.234-1.637,0.697-2.162C220.783,35.58,221.384,35.316,222.127,35.316z M222.121,40.445
				c0.529,0,0.959-0.198,1.289-0.592c0.328-0.396,0.494-0.944,0.497-1.65c0-0.723-0.169-1.279-0.503-1.672
				c-0.338-0.389-0.762-0.583-1.271-0.583c-0.522,0-0.954,0.19-1.292,0.573c-0.337,0.381-0.507,0.968-0.507,1.758
				c0,0.646,0.166,1.17,0.495,1.566C221.163,40.247,221.592,40.445,222.121,40.445z"/>
			<path fill="#FFFFFF" d="M228.627,37.046c-0.027-0.354-0.146-0.62-0.359-0.8c-0.211-0.18-0.516-0.27-0.91-0.27
				c-0.355,0-0.646,0.071-0.869,0.213c-0.223,0.145-0.336,0.349-0.336,0.621c0,0.24,0.086,0.418,0.261,0.535
				c0.171,0.12,0.501,0.236,0.987,0.354c0.435,0.103,0.787,0.205,1.063,0.312c0.271,0.107,0.508,0.271,0.702,0.497
				c0.194,0.223,0.292,0.521,0.292,0.9c0,0.479-0.18,0.876-0.536,1.191c-0.358,0.315-0.827,0.477-1.401,0.477
				c-0.733,0-1.283-0.176-1.65-0.523c-0.364-0.351-0.559-0.805-0.579-1.361l0.657-0.061c0.029,0.446,0.193,0.771,0.486,0.973
				c0.289,0.207,0.646,0.307,1.059,0.307c0.386,0,0.699-0.084,0.939-0.252c0.239-0.17,0.358-0.401,0.358-0.691
				c0-0.304-0.125-0.525-0.376-0.666c-0.25-0.139-0.667-0.275-1.26-0.412c-0.586-0.134-1.01-0.324-1.27-0.57
				c-0.259-0.245-0.39-0.564-0.39-0.959c0-0.443,0.164-0.813,0.493-1.104c0.328-0.291,0.773-0.438,1.34-0.438
				c0.583,0,1.048,0.146,1.4,0.438c0.354,0.288,0.539,0.701,0.562,1.234L228.627,37.046z"/>
			<path fill="#FFFFFF" d="M235.363,40.98h-0.654v-4.66h-0.014l-1.506,4.66h-0.623l-1.498-4.736h-0.021v4.736h-0.657v-5.568h1.035
				l1.237,3.943c0.138,0.438,0.218,0.713,0.237,0.824h0.016c0.064-0.216,0.158-0.515,0.279-0.895l1.248-3.874h0.921L235.363,40.98
				L235.363,40.98z"/>
			<path fill="#FFFFFF" d="M240.406,40.98h-3.907v-5.568h3.786v0.662h-3.094v1.699h2.895v0.66h-2.895v1.885h3.215V40.98z"/>
			<path fill="#FFFFFF" d="M245.098,36.074h-1.73v4.906h-0.694v-4.906h-1.716v-0.662h4.141V36.074L245.098,36.074z"/>
			<path fill="#FFFFFF" d="M248.109,35.316c0.731,0,1.332,0.266,1.799,0.795c0.464,0.529,0.697,1.228,0.697,2.092
				c0,0.865-0.235,1.561-0.701,2.086c-0.469,0.525-1.066,0.787-1.795,0.787c-0.754,0-1.362-0.273-1.821-0.817
				c-0.458-0.544-0.687-1.209-0.687-1.991c0-0.916,0.231-1.637,0.695-2.162C246.764,35.58,247.367,35.316,248.109,35.316z
				 M248.104,40.445c0.529,0,0.959-0.198,1.289-0.592c0.328-0.396,0.494-0.944,0.496-1.65c0-0.723-0.168-1.279-0.505-1.672
				c-0.336-0.389-0.759-0.583-1.268-0.583c-0.523,0-0.954,0.19-1.291,0.573c-0.341,0.381-0.509,0.968-0.509,1.758
				c0,0.646,0.166,1.17,0.496,1.566C247.145,40.247,247.573,40.445,248.104,40.445z"/>
			<path fill="#FFFFFF" d="M254.764,40.98h-3.271v-5.568h0.691v4.906h2.578v0.662H254.764z"/>
			<path fill="#FFFFFF" d="M257.855,35.316c0.733,0,1.332,0.266,1.799,0.795s0.699,1.228,0.699,2.092
				c0,0.865-0.234,1.561-0.703,2.086s-1.066,0.787-1.795,0.787c-0.754,0-1.36-0.273-1.817-0.817
				c-0.46-0.544-0.688-1.209-0.688-1.991c0-0.916,0.23-1.637,0.696-2.162C256.511,35.58,257.115,35.316,257.855,35.316z
				 M257.85,40.445c0.529,0,0.961-0.198,1.291-0.592c0.329-0.396,0.494-0.944,0.496-1.65c0-0.723-0.166-1.279-0.505-1.672
				c-0.337-0.389-0.759-0.583-1.269-0.583c-0.521,0-0.953,0.19-1.29,0.573c-0.339,0.381-0.509,0.968-0.509,1.758
				c0,0.646,0.166,1.17,0.496,1.566C256.891,40.247,257.32,40.445,257.85,40.445z"/>
			<path fill="#FFFFFF" d="M265.904,40.202c-0.658,0.583-1.379,0.874-2.162,0.874c-0.799,0-1.446-0.26-1.938-0.781
				c-0.49-0.52-0.736-1.213-0.736-2.074c0-0.527,0.101-1.018,0.302-1.473c0.2-0.454,0.497-0.807,0.89-1.057
				c0.391-0.25,0.867-0.375,1.437-0.375c0.587,0,1.057,0.138,1.413,0.414c0.354,0.273,0.596,0.688,0.719,1.234l-0.621,0.188
				c-0.098-0.4-0.271-0.701-0.523-0.902s-0.582-0.302-0.986-0.302c-0.633,0-1.106,0.206-1.428,0.614
				c-0.322,0.41-0.482,0.946-0.482,1.609c0,0.497,0.078,0.909,0.234,1.237c0.156,0.331,0.386,0.579,0.691,0.749
				c0.305,0.166,0.639,0.25,0.997,0.25c0.548,0,1.058-0.19,1.526-0.57v-1.035h-1.54v-0.662h2.211v2.062H265.904z"/>
			<path fill="#FFFFFF" d="M271.203,35.412l-2.083,3.21v2.358h-0.694v-2.358l-2.019-3.21h0.844l1.147,1.872
				c0.117,0.19,0.256,0.44,0.414,0.749c0.101-0.207,0.629-1.082,1.582-2.621H271.203z"/>
		</g>
		<g>
			<path fill="#FFFFFF" d="M276.611,39.037l0.679,0.184c-0.144,0.596-0.397,1.049-0.769,1.361c-0.369,0.314-0.819,0.471-1.354,0.471
				c-0.554,0-1.002-0.121-1.351-0.361c-0.347-0.24-0.609-0.59-0.789-1.045c-0.182-0.457-0.271-0.946-0.271-1.471
				c0-0.568,0.102-1.066,0.307-1.492c0.203-0.426,0.494-0.748,0.869-0.968c0.377-0.222,0.793-0.331,1.244-0.331
				c0.514,0,0.946,0.139,1.295,0.42c0.35,0.277,0.594,0.67,0.729,1.176l-0.667,0.168c-0.119-0.397-0.29-0.688-0.518-0.871
				c-0.229-0.18-0.511-0.271-0.854-0.271c-0.396,0-0.727,0.102-0.988,0.305c-0.266,0.199-0.451,0.473-0.559,0.813
				c-0.106,0.342-0.161,0.691-0.161,1.052c0,0.468,0.063,0.875,0.19,1.222c0.127,0.348,0.323,0.606,0.594,0.778
				c0.269,0.173,0.56,0.259,0.871,0.259c0.381,0,0.701-0.117,0.966-0.354C276.343,39.846,276.518,39.497,276.611,39.037z"/>
			<path fill="#FFFFFF" d="M277.848,38.289c0-0.909,0.23-1.622,0.688-2.135c0.457-0.516,1.048-0.773,1.771-0.773
				c0.473,0,0.898,0.122,1.278,0.363c0.381,0.238,0.671,0.578,0.87,1.01c0.199,0.434,0.298,0.926,0.298,1.473
				c0,0.556-0.103,1.053-0.313,1.49c-0.211,0.44-0.506,0.771-0.892,0.997s-0.802,0.339-1.246,0.339
				c-0.483,0-0.915-0.126-1.295-0.373c-0.381-0.25-0.667-0.591-0.864-1.022C277.947,39.229,277.848,38.77,277.848,38.289z
				 M278.548,38.299c0,0.662,0.166,1.182,0.5,1.563c0.331,0.38,0.749,0.57,1.25,0.57c0.511,0,0.933-0.19,1.263-0.576
				c0.33-0.383,0.494-0.928,0.494-1.633c0-0.445-0.068-0.837-0.212-1.168c-0.141-0.334-0.348-0.591-0.618-0.775
				c-0.271-0.182-0.578-0.273-0.914-0.273c-0.481,0-0.896,0.176-1.242,0.529C278.723,36.887,278.548,37.475,278.548,38.299z"/>
			<path fill="#FFFFFF" d="M283.654,40.958v-0.767h0.718v0.767H283.654z"/>
			<path fill="#FFFFFF" d="M285.563,40.958v-0.767h0.715v0.767c0,0.281-0.047,0.511-0.137,0.683
				c-0.097,0.174-0.244,0.308-0.447,0.402l-0.176-0.289c0.135-0.063,0.231-0.152,0.297-0.273c0.061-0.121,0.096-0.295,0.104-0.521
				L285.563,40.958L285.563,40.958z"/>
			<path fill="#FFFFFF" d="M287.368,40.958v-5.479h0.679v4.834h2.525v0.646H287.368z"/>
			<path fill="#FFFFFF" d="M292.082,40.958v-4.834h-1.689v-0.646h4.065v0.646h-1.696v4.834H292.082z"/>
			<path fill="#FFFFFF" d="M295.082,40.958v-5.479h1.768c0.397,0,0.703,0.026,0.912,0.08c0.295,0.069,0.545,0.202,0.752,0.391
				c0.271,0.244,0.473,0.558,0.607,0.938c0.135,0.379,0.201,0.813,0.201,1.303c0,0.416-0.045,0.785-0.137,1.104
				c-0.09,0.322-0.207,0.588-0.352,0.8c-0.143,0.209-0.297,0.375-0.467,0.496c-0.167,0.122-0.372,0.213-0.61,0.273
				c-0.239,0.063-0.515,0.095-0.825,0.095H295.082z M295.761,40.313h1.095c0.338,0,0.604-0.035,0.797-0.103
				c0.191-0.065,0.347-0.161,0.459-0.283c0.162-0.173,0.287-0.403,0.377-0.692c0.09-0.291,0.135-0.643,0.135-1.059
				c0-0.57-0.088-1.013-0.264-1.32s-0.391-0.513-0.643-0.617c-0.184-0.075-0.474-0.113-0.878-0.113h-1.077L295.761,40.313
				L295.761,40.313z"/>
			<path fill="#FFFFFF" d="M300.284,40.958v-0.767H301v0.767H300.284z"/>
		</g>
	</g>
	<rect x="269.426" y="49.566" fill="#FFFFFF" width="31.492" height="0.539"/>
	<path fill="#FFFFFF" d="M42.422,46.67l0.503-0.281c0.135,0.19,0.291,0.438,0.466,0.731h2.89v0.487h-6.238v2.468
		c0,1.575-0.26,2.847-0.78,3.811c-0.061-0.112-0.206-0.29-0.436-0.532c0.46-0.822,0.69-1.916,0.69-3.277V47.12H42.7
		C42.621,46.98,42.528,46.831,42.422,46.67z M40.051,52.66v-0.458h2.74v-0.474h-2.365v-0.439h2.365v-0.482
		c-0.681,0.021-1.447,0.043-2.297,0.062l-0.09-0.466c2.092-0.028,3.731-0.105,4.917-0.228l0.187,0.479
		c-0.56,0.046-1.291,0.091-2.191,0.13v0.505h2.38v0.439h-2.38v0.474h2.89v0.458h-2.89v0.191c0,0.639-0.288,0.957-0.863,0.957
		c-0.295,0-0.583-0.004-0.863-0.016c-0.021-0.171-0.048-0.368-0.083-0.586c0.291,0.046,0.563,0.066,0.818,0.066
		c0.311,0,0.466-0.174,0.466-0.524v-0.09L40.051,52.66L40.051,52.66z M40.073,49.732c0.426-0.213,0.833-0.553,1.224-1.021h-1.036
		v-0.42h1.156v-0.569h0.473v0.569h0.833v0.42H41.89v0.374l0.203-0.208c0.255,0.169,0.49,0.334,0.705,0.497l-0.3,0.288
		c-0.225-0.183-0.427-0.336-0.607-0.464v0.937h-0.473v-1.012c-0.301,0.392-0.641,0.728-1.021,1.004
		C40.306,50.003,40.199,49.871,40.073,49.732z M42.55,49.814c0.525-0.283,0.993-0.651,1.404-1.104h-0.901v-0.42h1.066v-0.57h0.473
		v0.57h1.336v0.42h-1.201c0.455,0.473,0.979,0.821,1.569,1.053c-0.146,0.137-0.265,0.276-0.361,0.418
		c-0.5-0.283-0.948-0.664-1.343-1.142v0.989H44.12v-0.983c-0.366,0.448-0.78,0.824-1.246,1.128
		C42.808,50.077,42.7,49.96,42.55,49.814z"/>
	<path fill="#FFFFFF" d="M57.098,51.221c0.465-0.773,0.833-1.677,1.103-2.705h-1.036v-0.513h1.082V46.48h0.548v1.521h1.051v0.514
		h-1.051v0.98L59.02,49.3c0.311,0.313,0.644,0.673,0.999,1.072l-0.406,0.383c-0.31-0.394-0.583-0.717-0.818-0.978v4.146h-0.548
		V49.77c-0.275,0.881-0.578,1.586-0.908,2.119C57.267,51.672,57.188,51.447,57.098,51.221z M60.243,46.768h3.701v3.851h-0.548V50.45
		h-1.404c0.155,0.454,0.355,0.868,0.6,1.233c0.511-0.306,0.988-0.621,1.434-0.951l0.368,0.479c-0.491,0.31-0.988,0.599-1.494,0.868
		c0.445,0.513,1.006,0.915,1.681,1.204c-0.165,0.163-0.322,0.341-0.472,0.532c-1.322-0.769-2.209-1.892-2.666-3.367h-0.645v2.508
		c0.34-0.143,0.775-0.35,1.306-0.618c0.005,0.243,0.021,0.445,0.045,0.603c-0.476,0.213-0.916,0.44-1.321,0.688
		c-0.18,0.116-0.326,0.227-0.436,0.328l-0.405-0.527c0.17-0.146,0.255-0.375,0.255-0.685L60.243,46.768L60.243,46.768z
		 M63.396,47.294h-2.597v1.06h2.597V47.294z M63.396,49.923v-1.059h-2.597v1.059H63.396z"/>
	<path fill="#FFFFFF" d="M75.983,52.736h2.8V49.45H75.45v-0.632h3.333v-2.394h0.676v2.394h3.325v0.632h-3.325v3.286h2.8v0.607
		h-6.276V52.736z"/>
	<path fill="#FFFFFF" d="M93.665,50.055h1.321v-3.339h4.902v3.339h1.238v0.577h-1.238v2.302c0,0.614-0.29,0.922-0.872,0.922
		c-0.325,0-0.721-0.01-1.185-0.029c-0.026-0.174-0.063-0.389-0.113-0.648c0.436,0.036,0.798,0.055,1.088,0.055
		c0.301,0,0.451-0.164,0.451-0.494v-2.104h-3.679c-0.115,1.481-0.506,2.604-1.172,3.368c-0.149-0.152-0.322-0.305-0.518-0.456
		c0.586-0.591,0.936-1.562,1.051-2.912h-1.276v-0.579H93.665z M95.616,47.287v2.768h3.642v-2.768H95.616z M96.555,48.125
		l0.465-0.381c0.375,0.385,0.769,0.822,1.179,1.311l-0.518,0.426C97.371,49.055,96.995,48.604,96.555,48.125z"/>
	<path fill="#FFFFFF" d="M112.152,51.997c0.671-0.742,1.236-1.66,1.697-2.752h-1.659v-0.558h1.802v-1.144
		c-0.516,0.054-1.026,0.101-1.532,0.146c-0.035-0.188-0.085-0.381-0.149-0.578c1.201-0.096,2.427-0.227,3.678-0.391l0.15,0.58
		c-0.531,0.067-1.056,0.129-1.577,0.184v1.203h1.704v0.558h-1.704v1.021l0.33-0.32c0.471,0.406,0.939,0.844,1.404,1.312
		l-0.458,0.474c-0.305-0.361-0.731-0.808-1.276-1.334v3.515h-0.571V50.1c-0.431,0.984-0.944,1.848-1.539,2.584
		C112.317,52.352,112.218,52.123,112.152,51.997z M116.822,47.325h0.571v4.815h-0.571V47.325z M118.601,46.563h0.593v6.35
		c0,0.645-0.32,0.965-0.961,0.959c-0.206,0-0.539-0.002-0.998-0.007c-0.03-0.21-0.067-0.438-0.113-0.688
		c0.405,0.046,0.714,0.069,0.924,0.069c0.37,0.004,0.555-0.188,0.555-0.571V46.563L118.601,46.563z"/>
	<path fill="#FFFFFF" d="M130.336,47.646h1.311c-0.158-0.381-0.319-0.729-0.484-1.045l0.458-0.229
		c0.18,0.303,0.365,0.654,0.555,1.05l-0.47,0.224h1.258v0.517h-1.385c-0.005,0.396-0.011,0.767-0.019,1.114h1.329
		c-0.03,1.311-0.068,2.447-0.113,3.412c-0.035,0.662-0.288,0.992-0.759,0.998c-0.239,0.006-0.49,0.002-0.75-0.008
		c-0.03-0.166-0.068-0.359-0.113-0.578c0.28,0.029,0.488,0.047,0.624,0.047c0.294,0,0.45-0.178,0.465-0.527
		c0.045-0.727,0.081-1.67,0.105-2.835h-0.804c0,1.973-0.314,3.319-0.945,4.046c-0.101-0.137-0.226-0.287-0.375-0.455
		c0.475-0.6,0.733-1.609,0.773-3.034c0.013-0.393,0.029-1.12,0.048-2.18h-0.709V47.646L130.336,47.646z M134.578,52.4l0.383,0.404
		c-0.6,0.471-1.148,0.85-1.644,1.133c-0.1-0.162-0.22-0.318-0.36-0.473C133.482,53.213,134.023,52.857,134.578,52.4z
		 M133.084,51.859h0.796v-2.744h-0.736v-0.502h0.736v-0.604h0.541v0.604h1.854v-0.61h0.542v0.61h0.72v0.502h-0.72v2.744h0.863v0.502
		h-4.594v-0.502H133.084z M133.099,48.018c0.35-0.438,0.643-0.988,0.879-1.651l0.54,0.143c-0.095,0.226-0.19,0.437-0.286,0.636
		h3.416v0.518h-3.683c-0.166,0.299-0.331,0.561-0.5,0.785C133.342,48.282,133.219,48.139,133.099,48.018z M134.42,49.719h1.854
		v-0.604h-1.854V49.719z M134.42,50.791h1.854v-0.602h-1.854V50.791z M134.42,51.859h1.854v-0.611h-1.854V51.859z M135.749,52.781
		l0.345-0.396c0.525,0.346,1.042,0.707,1.546,1.09l-0.375,0.455C136.74,53.495,136.235,53.111,135.749,52.781z"/>
	<path fill="#FFFFFF" d="M148.581,47.043h7.296v0.626h-3.646v1.66l0.346-0.487c1.146,0.686,2.105,1.303,2.882,1.854l-0.442,0.615
		c-0.775-0.604-1.705-1.242-2.785-1.912v4.473h-0.683V47.67h-2.966L148.581,47.043L148.581,47.043z"/>
	<path fill="#FFFFFF" d="M174.25,52.051c-0.166,0.207-0.301,0.389-0.406,0.547c-0.462-0.222-0.883-0.483-1.27-0.791v0.418h-1.792
		v0.793h2.935v0.496h-6.434v-0.496h2.935v-0.793h-1.815v-0.414c-0.396,0.338-0.813,0.629-1.246,0.879
		c-0.096-0.137-0.227-0.297-0.393-0.479c0.771-0.381,1.438-0.864,2.002-1.448h-1.92v-0.494h1.496v-2.553h-1.262v-0.497h1.262v-0.821
		h0.563v0.821h3.221v-0.821h0.563v0.821h1.263v0.497h-1.263v2.553h1.474v0.494h-1.976C172.748,51.33,173.438,51.76,174.25,52.051z
		 M170.218,51.005h0.564v0.74h1.718c-0.357-0.293-0.686-0.62-0.979-0.983h-2.069c-0.313,0.36-0.64,0.688-0.976,0.983h1.74
		L170.218,51.005L170.218,51.005z M168.902,48.246h3.222v-0.531h-3.222V48.246z M168.902,49.254h3.222v-0.533h-3.222V49.254z
		 M168.902,50.268h3.222v-0.543h-3.222V50.268z"/>
	<path fill="#FFFFFF" d="M185.305,53.07h3.186v-1.858h-2.688v-0.558h2.688v-1.066h-1.954v-0.533
		c-0.354,0.229-0.741,0.456-1.154,0.688c-0.104-0.193-0.229-0.385-0.377-0.57c1.668-0.794,2.847-1.703,3.536-2.729h0.818
		l-0.174,0.213c0.797,1.031,1.924,1.835,3.379,2.408c-0.135,0.192-0.268,0.396-0.397,0.608c-0.39-0.167-0.769-0.366-1.133-0.603
		v0.519h-1.944v1.065h2.672v0.559h-2.672v1.857h3.198v0.565h-6.981V53.07H185.305z M186.146,51.676l0.443-0.357
		c0.365,0.377,0.723,0.768,1.073,1.172l-0.513,0.412C186.852,52.501,186.518,52.093,186.146,51.676z M188.796,47.089
		c-0.515,0.659-1.26,1.31-2.229,1.94h4.408C190.191,48.529,189.467,47.88,188.796,47.089z M189.863,52.553
		c0.402-0.426,0.746-0.845,1.027-1.248l0.523,0.34c-0.352,0.444-0.719,0.866-1.102,1.273L189.863,52.553z"/>
	<path fill="#FFFFFF" d="M203.422,50.075h1.163v-3.656h0.587v1.44h1.674v0.549h-1.674v1.667h1.246v3.475h-0.57v-0.442h-1.854v0.535
		h-0.571V50.075z M205.848,50.593h-1.854v2.015h1.854V50.593z M206.521,52.805c0.572-0.306,1.09-0.656,1.547-1.056
		c-0.193-0.688-0.322-1.539-0.389-2.554l-1.195,0.142l-0.09-0.558l1.25-0.145c-0.027-0.619-0.058-1.365-0.086-2.232h0.601
		c0.012,0.813,0.03,1.535,0.062,2.168l2.189-0.256l0.068,0.55l-2.233,0.266c0.053,0.863,0.147,1.591,0.289,2.181
		c0.521-0.537,0.954-1.144,1.297-1.82l0.526,0.304c-0.446,0.82-0.992,1.539-1.635,2.162c0.196,0.548,0.448,0.925,0.758,1.13
		c0.238,0.152,0.396,0.076,0.472-0.229c0.065-0.311,0.123-0.694,0.174-1.158c0.229,0.104,0.423,0.177,0.577,0.222
		c-0.086,0.543-0.172,0.979-0.262,1.304c-0.131,0.418-0.354,0.625-0.678,0.625c-0.255,0-0.496-0.104-0.728-0.313
		c-0.302-0.267-0.558-0.657-0.767-1.175c-0.416,0.352-0.867,0.664-1.357,0.945C206.809,53.148,206.678,52.982,206.521,52.805z
		 M208.663,46.951l0.329-0.383c0.4,0.277,0.787,0.565,1.162,0.871l-0.366,0.435C209.443,47.559,209.066,47.251,208.663,46.951z"/>
	<path fill="#FFFFFF" d="M221.787,47.15h2.625v6.021h-0.495v-0.39h-1.635v0.541h-0.495V47.15L221.787,47.15z M222.282,49.695h0.569
		V47.66h-0.569V49.695z M222.282,52.27h0.569v-2.063h-0.569V52.27z M223.917,47.66h-0.569v2.035h0.569V47.66z M223.348,52.27h0.569
		v-2.063h-0.569V52.27z M224.459,48.779c0.506-0.686,0.938-1.483,1.297-2.393l0.541,0.176c-0.098,0.229-0.199,0.453-0.301,0.662
		h2.365v0.512c-0.348,0.697-0.773,1.3-1.282,1.802c0.493,0.348,1.098,0.61,1.817,0.789c-0.111,0.207-0.207,0.42-0.287,0.633
		c-0.777-0.267-1.43-0.616-1.957-1.047c-0.535,0.424-1.157,0.808-1.871,1.139c-0.119-0.209-0.234-0.383-0.346-0.526
		c0.674-0.26,1.279-0.592,1.811-0.996c-0.303-0.321-0.581-0.717-0.837-1.184c-0.187,0.312-0.367,0.59-0.554,0.84
		C224.707,49.006,224.572,48.872,224.459,48.779z M225.134,50.968h3.07v2.964h-0.556v-0.365h-1.959v0.365h-0.557L225.134,50.968
		L225.134,50.968z M227.648,51.5h-1.959v1.531h1.959V51.5z M227.73,47.744h-1.992l-0.045,0.084c0.277,0.558,0.598,1.012,0.959,1.365
		C227.055,48.818,227.41,48.336,227.73,47.744z"/>
	<path fill="#FFFFFF" d="M244.219,46.518l-0.18,0.223c0.835,1.102,1.945,1.932,3.326,2.492c-0.156,0.223-0.289,0.426-0.398,0.608
		c-0.402-0.2-0.789-0.423-1.154-0.67v0.433h-4.393v-0.381c-0.365,0.243-0.757,0.482-1.172,0.717
		c-0.102-0.172-0.225-0.363-0.375-0.572c1.547-0.786,2.714-1.735,3.505-2.85H244.219z M241.005,50.57h5.233v3.386h-0.6v-0.511
		h-4.031v0.525h-0.604L241.005,50.57L241.005,50.57z M245.639,51.127h-4.031v1.775h4.031V51.127z M243.643,47.182
		c-0.512,0.666-1.181,1.291-2.006,1.883h4.016C244.893,48.533,244.221,47.907,243.643,47.182z"/>
	<path fill="#FFFFFF" d="M258.158,50.205c0.703-1.061,1.265-2.318,1.674-3.771l0.613,0.183c-0.19,0.601-0.396,1.161-0.613,1.688
		V53.9h-0.585v-4.354c-0.254,0.479-0.521,0.919-0.804,1.313C258.367,50.669,258.273,50.449,258.158,50.205z M260.245,49.505
		c0.665-0.925,1.157-1.956,1.471-3.094l0.616,0.112c-0.116,0.393-0.249,0.771-0.396,1.137h3.699v0.533h-2.732v1.334h2.433v0.533
		h-2.433v1.387h2.529v0.533h-2.529v1.92h-0.586v-5.707h-0.611c-0.28,0.619-0.612,1.201-0.986,1.744
		C260.577,49.802,260.421,49.657,260.245,49.505z"/>
	<rect x="1" y="49.848" fill="#FFFFFF" width="32.758" height="0.537"/>
</g>
</svg>
